<?xml version="1.0" encoding="UTF-8"?>
<svg width="26px" height="63px" viewBox="0 0 26 63" version="1.1" xmlns="http://www.w3.org/2000/svg" xmlns:xlink="http://www.w3.org/1999/xlink">
    <!-- Generator: Sketch 52.1 (67048) - http://www.bohemiancoding.com/sketch -->
    <title>Asset 2</title>
    <desc>Created with Sketch.</desc>
    <defs>
        <filter x="-60.0%" y="-21.8%" width="220.0%" height="143.6%" filterUnits="objectBoundingBox" id="filter-1">
            <feOffset dx="0" dy="2" in="SourceAlpha" result="shadowOffsetOuter1"></feOffset>
            <feGaussianBlur stdDeviation="2" in="shadowOffsetOuter1" result="shadowBlurOuter1"></feGaussianBlur>
            <feColorMatrix values="0 0 0 0 0   0 0 0 0 0   0 0 0 0 0  0 0 0 0.5 0" type="matrix" in="shadowBlurOuter1" result="shadowMatrixOuter1"></feColorMatrix>
            <feMerge>
                <feMergeNode in="shadowMatrixOuter1"></feMergeNode>
                <feMergeNode in="SourceGraphic"></feMergeNode>
            </feMerge>
        </filter>
        <linearGradient x1="-10.0114484%" y1="66.4468129%" x2="90.0021818%" y2="65.582727%" id="linearGradient-2">
            <stop stop-color="#EC4036" offset="0%"></stop>
            <stop stop-color="#EE5A28" offset="18%"></stop>
            <stop stop-color="#F38D80" offset="100%"></stop>
        </linearGradient>
        <linearGradient x1="63516.5053%" y1="11690.4089%" x2="63616.6288%" y2="11690.4089%" id="linearGradient-3">
            <stop stop-color="#F38C7F" offset="0%"></stop>
            <stop stop-color="#EE5A28" offset="18%"></stop>
            <stop stop-color="#F38D80" offset="100%"></stop>
        </linearGradient>
        <linearGradient x1="100%" y1="29.968934%" x2="0%" y2="29.968934%" id="linearGradient-4">
            <stop stop-color="#F38D80" offset="0%"></stop>
            <stop stop-color="#EC4235" offset="100%"></stop>
        </linearGradient>
        <linearGradient x1="100%" y1="50%" x2="0%" y2="50%" id="linearGradient-5">
            <stop stop-color="#F38D7E" offset="0%"></stop>
            <stop stop-color="#EE572A" offset="100%"></stop>
        </linearGradient>
    </defs>
    <g id="Page-1" stroke="none" stroke-width="1" fill="none" fill-rule="evenodd">
        <g id="Asset-2" filter="url(#filter-1)" transform="translate(2.390462, 1.168181)">
            <rect id="Rectangle" fill="#262525" transform="translate(10.543713, 13.884980) rotate(-0.150000) translate(-10.543713, -13.884980) " x="5.46371321" y="11.6649802" width="10.16" height="4.44"></rect>
            <path d="M12,15.79 C9.4,15.79 9.4,15.4 9.4,15.29 C9.4,14.97 10.22,14.88 10.91,14.86 C11.91,14.86 12.19,14.62 12.19,14.52 C12.19,14.42 11.95,14.25 11.39,14.2 C9.79,14.07 9.78,13.9 9.78,13.78 C9.78,13.66 9.9,13.49 11.48,13.34 L12.07,13.27 C11.68,13.21 11.02,13.16 10.41,13.13 L10.41,12.88 C12.62,12.99 12.62,13.14 12.62,13.27 C12.62,13.4 12.52,13.49 11.49,13.59 C11.0395552,13.623 10.5918634,13.6864787 10.15,13.78 C10.5582016,13.8692886 10.9728293,13.9261328 11.39,13.95 C12.02,14 12.39,14.23 12.39,14.53 C12.39,14.83 11.83,15.09 10.87,15.11 C10.4525923,15.0969793 10.0361732,15.1579187 9.64,15.29 C10.3884743,15.5126972 11.1712112,15.597409 11.95,15.54 L12,15.79 Z" id="Path" fill="#7A7A7A"></path>
            <path d="M16.62,1.76 C16.3368008,1.52939488 15.9850955,1.39926392 15.62,1.39 C13.9186224,1.22532021 12.2087419,1.16520722 10.5,1.21 C8.7870605,1.17407459 7.07357479,1.24755741 5.37,1.43 C4.72,1.55 4.68,1.56 4.37,1.8 C4.06,2.04 4.1,4.91 4.17,5.25 C4.21723169,5.44786376 4.39665302,5.5855592 4.6,5.58 L10.51,5.58 L16.42,5.58 C16.6270381,5.5904419 16.8120535,5.45168035 16.86,5.25 C16.91,4.87 16.93,2 16.62,1.76 Z" id="Path" fill="url(#linearGradient-2)"></path>
            <polygon id="Path" fill="#EA5222" points="11 5.56 10.82 1.2 8.74 1.22 7.18 1.27 5.06 5.58"></polygon>
            <path d="M4.77,5.66 L7.1,1.21 L7.16,1.21 C8.15637143,1.10346961 9.15797153,1.0533896 10.16,1.06 C12.09,1.06 13.79,1.19 13.81,1.19 L13.88,1.19 L16.3,5.62 L16.11,5.62 C14.4213519,5.33780496 12.7120629,5.19731545 11,5.2 C8.99256627,5.20719254 6.98794396,5.35085714 5,5.63 L4.77,5.66 Z M7.26,1.33 L5.09,5.48 C7.04910734,5.21612844 9.02322344,5.07917622 11,5.07 C12.6733572,5.05234419 14.3454215,5.16938868 16,5.42 L13.7,1.31 C13.37,1.31 11.85,1.19 10.15,1.19 C9.18481906,1.18319318 8.22000359,1.22993164 7.26,1.33 Z" id="Shape" fill="#040407" fill-rule="nonzero"></path>
            <path d="M7.74,2.46 C7.68,2.84 7.6,3.22 7.54,3.6 L7.31,4.75 L7.21,4.69 L8,4.64 L8.83,4.64 L9.66,4.64 L11.32,4.64 L12.15,4.64 L12.57,4.64 L12.98,4.64 L13.81,4.64 L13.71,4.7 L13.54,3.56 C13.54,3.18 13.44,2.8 13.4,2.42 C13.49,2.8 13.57,3.18 13.65,3.56 L13.88,4.7 L13.88,4.76 L13.77,4.76 L12.95,4.76 L12.54,4.76 L9.7,4.76 L8.88,4.76 L8.05,4.76 L7.23,4.76 L7.12,4.76 L7.12,4.73 L7.43,3.6 C7.52,3.22 7.63,2.84 7.74,2.46 Z" id="Path" fill="#040407"></path>
            <path d="M5.37,1.68 C7.0740249,1.50416129 8.78730445,1.43402704 10.5,1.47 C12.208948,1.42830321 13.9188428,1.49175634 15.62,1.66 C16.27,1.78 16.31,1.79 16.62,2.03 C16.8549649,2.74852421 16.9466969,3.50616247 16.89,4.26 C16.9583154,3.40721159 16.8667452,2.54916534 16.62,1.73 C16.31,1.5 16.27,1.48 15.62,1.36 C13.9225039,1.10187565 12.2069095,0.98148307 10.49,1 C8.77565721,0.993070137 7.06351416,1.12348728 5.37,1.39 C4.72,1.51 4.67,1.52 4.37,1.76 C4.12866933,2.5767522 4.04384797,3.4317515 4.12,4.28 C4.05737316,3.52747985 4.14229559,2.76997181 4.37,2.05 C4.68,1.82 4.73,1.8 5.37,1.68 Z" id="Path" fill="#040407"></path>
            <path d="M3.88,6.29 C3.48151214,6.05507878 3.00307391,5.99708627 2.56,6.13 C1.66,6.31 -0.2,7.36 2.11,7 C4.42,6.64 2.23,6.33 4.42,6.65 C5.45,6.8 3.88,6.29 3.88,6.29 Z" id="Path" fill="#040407"></path>
            <path d="M16.91,6.24 C17.3078353,6.00403325 17.785359,5.94253399 18.23,6.07 C19.12,6.24 20.99,7.29 18.68,6.95 C16.37,6.61 18.56,6.28 16.37,6.6 C15.34,6.77 16.91,6.24 16.91,6.24 Z" id="Path" fill="#040407"></path>
            <path d="M18.18,12.18 C18.18,11.18 17.92,7.89 17.79,6.74 C17.79,6.67 17.79,6.61 17.79,6.55 C17.68,6.06 17.4,5.96 17.03,5.77 C16.4510524,5.52084866 15.837194,5.36232478 15.21,5.3 L14.73,5.25 C11.9432639,5.05914597 9.14673609,5.05914597 6.36,5.25 L5.88,5.31 C5.23030694,5.37328995 4.59529569,5.54217592 4,5.81 C3.63,6 3.35,6.11 3.25,6.6 C3.24572801,6.66326129 3.24572801,6.72673871 3.25,6.79 C3.12,7.93 2.92,11.18 2.89,12.23 C2.89,12.33 2.89,12.41 2.89,12.46 C2.8827943,12.694715 3.00084384,12.9155819 3.2,13.04 L3.33,13.12 L3.47,13.18 L3.6,13.18 L17.43,13.18 L17.56,13.18 L17.7,13.12 L17.83,13.04 C18.0276366,12.9141677 18.1451856,12.6942373 18.14,12.46 C18.19,12.35 18.18,12.27 18.18,12.18 Z" id="Path" fill="url(#linearGradient-3)"></path>
            <path d="M10.16,12.12 C10.16,12.12 10.59,9.36 10.59,8.58 C10.4908131,7.41942627 10.3137475,6.26682964 10.06,5.13 C10.06,5.13 5.57,5 4,5.81 C3.59,6.02 3.28,6.13 3.22,6.81 C3.08,8.06 2.85,11.81 2.86,12.48 C2.8527943,12.714715 2.97084384,12.9355819 3.17,13.06 C3.37694832,13.205653 3.6274542,13.276218 3.88,13.26 L4.23,13.26 L10.39,13.26 L10.88,13.26 L15.76,13.26 C15.76,13.26 12.59,12.47 11.51,12.26 C11.2,12.17 10.16,12.12 10.16,12.12 Z" id="Path" fill="#EA5222"></path>
            <path d="M17,5.93 C14.7765119,5.62421682 12.5344074,5.47385214 10.29,5.48 C8.27939056,5.4750015 6.27204956,5.64227992 4.29,5.98 C4.18201917,5.99460283 4.08646283,6.05732712 4.03011597,6.1505909 C3.9737691,6.24385468 3.96269581,6.35762081 4,6.46 C4,6.46 4.39,7.65 4.39,7.65 L6.85,7.65 L14.36,7.65 L16.77,7.65 C16.77,7.65 17.16,6.47 17.15,6.46 C17.2095578,6.37205543 17.2272403,6.26229889 17.1983159,6.16009928 C17.1693915,6.05789966 17.0968126,5.9736888 17,5.93 Z" id="Path" fill="#F2D1BB"></path>
            <polygon id="Path" fill="#040407" points="17.74 11.65 17.17 11.65 17.16 8.38 17.73 8.07"></polygon>
            <path d="M10,5.48 C8.06781179,5.46928049 6.13902803,5.6434068 4.24,6 C4.14606729,6.02754202 4.06740007,6.0921472 4.02212075,6.17893256 C3.97684143,6.26571793 3.96885454,6.3671998 4,6.46 C4,6.46 4.39,7.65 4.39,7.65 L10.72,7.65 C10.771012,7.2918071 10.771012,6.9281929 10.72,6.57 C10.5474062,6.19924111 10.3537569,5.83865278 10.14,5.49 L10,5.48 Z" id="Path" fill="#040407"></path>
            <path d="M3.76,12.89 L4.29,12.89 L5.68,12.89 L7.68,12.89 L9.91,12.89 L12.17,12.89 L16.07,12.89 L15.54,12.89 C15.2,12.89 14.73,12.94 14.14,12.96 L12.14,12.96 L9.91,12.96 L7.65,13 L5.65,13 L4.26,12.95 L3.76,12.89 Z" id="Path" fill="#040407"></path>
            <path d="M4.55,7.74 L4.69,7.74 L5.07,7.74 L5.67,7.69 L6.45,7.64 L7.38,7.59 L8.38,7.59 L10.62,7.59 L12.86,7.59 C13.58,7.59 14.25,7.59 14.86,7.59 C15.3245019,7.60072741 15.7867818,7.65767494 16.24,7.76 C16.3677912,7.78941419 16.4918948,7.83301815 16.61,7.89 L16.73,7.95 L16.6,7.9 C16.4791995,7.86040735 16.3554895,7.83031574 16.23,7.81 C15.7765542,7.74266739 15.3183574,7.71256687 14.86,7.72 C14.29,7.72 13.62,7.72 12.86,7.72 L11.76,7.72 L10.62,7.72 L8.37,7.72 L7.37,7.72 L6.45,7.72 L5.68,7.72 L5.08,7.72 L4.55,7.72 L4.55,7.74 Z" id="Path" fill="#6B6D66"></path>
            <path d="M18.48,54.9 L2.84,54.95 C2.59785954,54.9779097 2.35475345,54.9064134 2.16627435,54.7518606 C1.97779525,54.5973077 1.86006293,54.3729165 1.84,54.13 L1.77,15.91 C1.78749195,15.6652884 1.90412565,15.4383236 2.09290708,15.281635 C2.28168851,15.1249464 2.52625376,15.0521161 2.77,15.08 L18.36,15 C18.6026916,14.9691514 18.8473804,15.0395638 19.036556,15.1946878 C19.2257316,15.3498117 19.342711,15.5759673 19.36,15.82 L19.48,54.04 C19.4734684,54.2911463 19.3610955,54.5278337 19.1706158,54.6916463 C18.980136,54.8554589 18.7292943,54.931136 18.48,54.9 Z M2.83,54.12 L18.47,54.12 L18.35,15.92 L2.71,15.92 L2.83,54.12 Z" id="Shape" fill="#EA5222" fill-rule="nonzero"></path>
            <path d="M19,54.07 C18.9787687,54.3147932 18.7651025,54.4972998 18.52,54.48 L2.88,54.54 C2.63489754,54.5572998 2.42123132,54.3747932 2.4,54.13 L2.24,15.9 C2.26123132,15.6552068 2.47489754,15.4727002 2.72,15.49 L18.36,15.44 C18.6015764,15.4224231 18.8137258,15.5992143 18.84,15.84 L19,54.07 Z" id="Path" fill="url(#linearGradient-4)"></path>
            <path d="M3,53.82 C3,53.92 3.15,53.99 3.34,53.99 C3.52,53.99 3.68,53.91 3.67,53.82 L3.6,16.2 C3.6,16.1 3.45,16.03 3.26,16.03 C3.07,16.03 2.92,16.11 2.92,16.21 L3,53.82 Z" id="Path" fill="url(#linearGradient-5)"></path>
            <path d="M4.18,53.82 C4.18,53.91 4.33,53.99 4.51,53.99 C4.7,53.99 4.85,53.91 4.85,53.82 L4.73,16.2 C4.73,16.1 4.58,16.03 4.4,16.03 C4.22,16.03 4.07,16.11 4.07,16.2 L4.18,53.82 Z" id="Path" fill="url(#linearGradient-5)"></path>
            <path d="M5.32,53.81 C5.32,53.91 5.47,53.98 5.66,53.98 C5.84,53.98 5.99,53.9 5.99,53.8 L5.87,16.19 C5.87,16.09 5.72,16.02 5.53,16.02 C5.34,16.02 5.19,16.1 5.19,16.19 L5.32,53.81 Z" id="Path" fill="url(#linearGradient-5)"></path>
            <path d="M6.46,53.81 C6.46,53.9 6.61,53.98 6.79,53.98 C6.97,53.98 7.13,53.9 7.13,53.8 L7,16.19 C7,16.1 6.85,16.02 6.66,16.02 C6.48,16.02 6.32,16.1 6.33,16.2 L6.46,53.81 Z" id="Path" fill="url(#linearGradient-5)"></path>
            <path d="M7.6,53.81 C7.6,53.91 7.75,53.98 7.94,53.99 C8.12,53.99 8.27,53.91 8.27,53.81 L8.15,16.19 C8.15,16.09 8,16.02 7.81,16.02 C7.63,16.02 7.48,16.1 7.47,16.19 L7.6,53.81 Z" id="Path" fill="url(#linearGradient-5)"></path>
            <path d="M8.74,53.81 C8.74,53.9 8.89,53.98 9.08,53.98 C9.26,53.98 9.42,53.9 9.41,53.81 L9.29,16.18 C9.29,16.08 9.14,16.01 8.95,16.01 L9,16.01 C8.81,16.01 8.66,16.09 8.66,16.18 L8.74,53.81 Z" id="Path" fill="url(#linearGradient-5)"></path>
            <path d="M9.87,53.8 C9.87,53.89 10.02,53.97 10.21,53.97 C10.4,53.97 10.55,53.89 10.55,53.79 L10.42,16.18 C10.42,16.08 10.27,16.01 10.09,16.01 C9.91,16.01 9.76,16.09 9.76,16.19 L9.87,53.8 Z" id="Path" fill="url(#linearGradient-5)"></path>
            <path d="M11,53.8 C11,53.89 11.15,53.97 11.34,53.97 C11.52,53.97 11.67,53.89 11.67,53.79 L11.55,16.17 C11.55,16.07 11.4,16 11.22,16 C11.04,16 10.89,16.08 10.88,16.17 L11,53.8 Z" id="Path" fill="url(#linearGradient-5)"></path>
            <path d="M12.15,53.79 C12.15,53.89 12.3,53.96 12.49,53.96 C12.67,53.96 12.82,53.88 12.82,53.79 L12.7,16.17 C12.7,16.07 12.55,16 12.36,16 C12.17,16 12.02,16.08 12.02,16.18 L12.15,53.79 Z" id="Path" fill="url(#linearGradient-5)"></path>
            <path d="M13.29,53.79 C13.29,53.88 13.44,53.96 13.63,53.96 C13.81,53.96 13.97,53.88 13.96,53.79 L13.84,16.17 C13.84,16.07 13.69,16 13.5,16 C13.32,16 13.16,16.07 13.17,16.17 L13.29,53.79 Z" id="Path" fill="url(#linearGradient-5)"></path>
            <path d="M14.43,53.79 C14.43,53.89 14.58,53.96 14.76,53.96 C14.95,53.96 15.1,53.88 15.1,53.78 L15,16.16 C15,16.06 14.85,15.99 14.67,15.99 C14.49,15.99 14.33,16.07 14.33,16.16 L14.43,53.79 Z" id="Path" fill="url(#linearGradient-5)"></path>
            <path d="M15.57,53.78 C15.57,53.88 15.72,53.95 15.91,53.95 C16.09,53.95 16.24,53.87 16.24,53.77 L16.12,16.15 C16.12,16.05 15.97,15.98 15.78,15.98 C15.59,15.98 15.44,16.06 15.45,16.15 L15.57,53.78 Z" id="Path" fill="url(#linearGradient-5)"></path>
            <path d="M16.71,53.78 C16.71,53.88 16.86,53.95 17.05,53.95 C17.24,53.95 17.39,53.87 17.39,53.77 L17.27,16.15 C17.27,16.05 17.12,15.98 16.93,15.98 C16.75,15.98 16.6,16.06 16.6,16.16 L16.71,53.78 Z" id="Path" fill="url(#linearGradient-5)"></path>
            <path d="M17.84,53.77 C17.84,53.86 17.99,53.95 18.18,53.94 C18.37,53.94 18.51,53.86 18.52,53.77 L18.4,16.15 C18.4,16.05 18.25,15.98 18.06,15.98 C17.88,15.98 17.73,16.06 17.73,16.15 L17.84,53.77 Z" id="Path" fill="url(#linearGradient-5)"></path>
        </g>
    </g>
</svg>